<svg xmlns="http://www.w3.org/2000/svg" width="70.734" height="18.234" viewBox="0 0 70.734 18.234"><defs><style>.a{fill:#fff;}</style></defs><g transform="translate(297.353 76.652)"><g transform="translate(-297.353 -76.652)"><path class="a" d="M3.009,9.072A6.048,6.048,0,0,1,0,8.2V6.182a6.449,6.449,0,0,0,2.95.94c.369,0,1-.1,1.047-.654s-.642-.8-1.07-.963l-.785-.309C.9,4.695.059,4.088.059,2.518S1.249,0,3.009,0A5.531,5.531,0,0,1,5.84.734V2.72a5.979,5.979,0,0,0-2.7-.809c-.416,0-.892.083-.88.571s.5.607.856.749l.856.357C5.138,4.076,6.173,4.6,6.2,6.1,6.232,8.12,4.829,9.072,3.009,9.072Z" transform="translate(0 0.004)"/><path class="a" d="M130.21,9.039c-2.866,0-5.21-1.76-5.21-4.52S127.105,0,130.067,0a7.505,7.505,0,0,1,3.949,1.178V3.164a8.992,8.992,0,0,0-3.9-1.237,2.625,2.625,0,0,0-2.938,2.593c-.024,1.629,1.451,2.593,3.057,2.593a3.705,3.705,0,0,0,1.82-.428V4.4h2.272V7.636A6.389,6.389,0,0,1,130.21,9.039Z" transform="translate(-110.133 0)"/><path class="a" d="M225.934,5.272a7.483,7.483,0,0,1,.071-.856l-2.664,2.319-2.712-2.307s.059.535.059.892V9.637H218.5V.8h1l2.95,2.545c.369.309.856.785.856.785s.535-.511.856-.785L227.123.8h1V9.637h-2.188Z" transform="translate(-192.512 -0.704)"/><path class="a" d="M389.021,9.637l-5.769-5.043a5.8,5.8,0,0,1,.059.821V9.637H381.1V.8h1l5.78,5.186a6.864,6.864,0,0,1-.059-.726V.8H390V9.637Z" transform="translate(-335.772 -0.704)"/><path class="a" d="M469.781,9.637h-2.188V2.81H464.5V.8h8.35V2.81h-3.069Z" transform="translate(-409.252 -0.704)"/><path class="a" d="M545.609,9.072A6.048,6.048,0,0,1,542.6,8.2V6.182a6.449,6.449,0,0,0,2.95.94c.369,0,1-.1,1.047-.654s-.642-.8-1.07-.963l-.785-.309c-1.249-.5-2.105-1.106-2.105-2.664S543.849,0,545.609,0a5.531,5.531,0,0,1,2.831.737V2.72a5.979,5.979,0,0,0-2.7-.809c-.416,0-.892.083-.88.571s.5.607.856.749l.856.357c1.166.488,2.2,1.011,2.224,2.51C548.833,8.12,547.429,9.072,545.609,9.072Z" transform="translate(-478.063 0.004)"/><path class="a" d="M67.889,58.5H63.5v1.974h6.078V58.5Z" transform="translate(-55.947 -51.542)"/><path class="a" d="M69.471,29.5H63.5v1.832h6.078V29.5Z" transform="translate(-55.947 -25.991)"/><path class="a" d="M66.485,29.5H63.5v1.832h3.033V29.5Z" transform="translate(-55.947 -25.991)"/><path class="a" d="M69.471.8H63.5V2.632h6.078V.8Z" transform="translate(-55.947 -0.704)"/><rect class="a" width="1.82" height="1.825" transform="translate(7.553 0.096)"/><path class="a" d="M319.389,58.5H315v1.974h6.066V58.5Z" transform="translate(-277.534 -51.542)"/><path class="a" d="M320.971,29.5H315v1.832h6.066V29.5Z" transform="translate(-277.534 -25.991)"/><path class="a" d="M317.985,29.5H315v1.832h3.033V29.5Z" transform="translate(-277.534 -25.991)"/><path class="a" d="M320.971.8H315V2.632h6.066V.8Z" transform="translate(-277.534 -0.704)"/><rect class="a" width="1.82" height="1.825" transform="translate(37.466 0.096)"/><g transform="translate(5.828 11.835)"><path class="a" d="M52.021,104.484h-.476V103.9a1.118,1.118,0,0,1-.464.488,1.3,1.3,0,0,1-.642.167,1.475,1.475,0,0,1-.535-.107,1.391,1.391,0,0,1-.476-.309,1.32,1.32,0,0,1-.321-.488,1.713,1.713,0,0,1-.107-.607,1.939,1.939,0,0,1,.238-.94,1.308,1.308,0,0,1,.523-.488,1.451,1.451,0,0,1,.7-.178,1.273,1.273,0,0,1,.69.2l.19.155.2.226V99.5h.476Zm-.737-.678a1.285,1.285,0,0,0,.25-.8,1.189,1.189,0,0,0-.2-.69.9.9,0,0,0-.607-.381h-.167a.975.975,0,0,0-.654.25.8.8,0,0,0-.309.476q-.024.226-.036.274v.083a1.3,1.3,0,0,0,.238.785.785.785,0,0,0,.678.333,1.285,1.285,0,0,0,.452-.071.975.975,0,0,0,.357-.274Z" transform="translate(-49 -99.5)"/><path class="a" d="M101.738,117.967a1.951,1.951,0,0,1-.654.559,1.689,1.689,0,0,1-.809.2,1.618,1.618,0,0,1-.773-.2,1.451,1.451,0,0,1-.523-.583,1.713,1.713,0,0,1-.178-.773,1.677,1.677,0,0,1,.333-1.011,1.089,1.089,0,0,1,.678-.5l.476-.059a1.618,1.618,0,0,1,.761.19,1.118,1.118,0,0,1,.511.571,2.2,2.2,0,0,1,.167.892H99.335a1.094,1.094,0,0,0,.274.749.868.868,0,0,0,.69.309l.226-.024a.928.928,0,0,0,.44-.178,1.927,1.927,0,0,0,.357-.381Zm-.523-1.106a.987.987,0,0,0-.333-.583.94.94,0,0,0-.63-.226.785.785,0,0,0-.571.238,1.142,1.142,0,0,0-.321.571Z" transform="translate(-92.876 -113.685)"/><path class="a" d="M150.862,116.5l-1.392,3.057h-.131L147.9,116.5h.618l.9,2.177.844-2.177Z" transform="translate(-136.137 -114.478)"/><path class="a" d="M200.137,117.967a1.95,1.95,0,0,1-.654.559,1.689,1.689,0,0,1-.809.2,1.629,1.629,0,0,1-.773-.2,1.451,1.451,0,0,1-.523-.583,1.713,1.713,0,0,1-.178-.773,1.677,1.677,0,0,1,.333-1.011,1.089,1.089,0,0,1,.678-.5l.476-.059a1.618,1.618,0,0,1,.761.19,1.118,1.118,0,0,1,.523.559,2.2,2.2,0,0,1,.167.892h-2.414a1.094,1.094,0,0,0,.274.749.868.868,0,0,0,.69.309l.226-.024a.928.928,0,0,0,.44-.178,1.928,1.928,0,0,0,.357-.381Zm-.523-1.106a.987.987,0,0,0-.333-.583.94.94,0,0,0-.63-.226.785.785,0,0,0-.571.238,1.142,1.142,0,0,0-.321.571Z" transform="translate(-179.573 -113.685)"/><path class="a" d="M246.823,104.572H246.3V99.6h.523Z" transform="translate(-222.833 -99.588)"/><path class="a" d="M278.374,117.292a1.475,1.475,0,0,1-.464,1.094,1.618,1.618,0,0,1-2.248,0,1.487,1.487,0,0,1-.464-1.106,1.558,1.558,0,0,1,.452-1.118,1.487,1.487,0,0,1,1.106-.464,1.582,1.582,0,0,1,1.142.464A1.522,1.522,0,0,1,278.374,117.292Zm-.476,0a1.094,1.094,0,0,0-.309-.785,1.023,1.023,0,0,0-.761-.321,1.106,1.106,0,0,0-.8.309,1.011,1.011,0,0,0-.333.761,1.082,1.082,0,0,0,.321.773,1.035,1.035,0,0,0,.773.333,1.106,1.106,0,0,0,.785-.309A1,1,0,0,0,277.9,117.292Z" transform="translate(-248.294 -113.771)"/><path class="a" d="M329.333,117.38a1.677,1.677,0,0,1-.333,1.035,1.04,1.04,0,0,1-.654.476l-.416.036a1.356,1.356,0,0,1-.452-.071,1.142,1.142,0,0,1-.345-.178,1.5,1.5,0,0,1-.2-.2.878.878,0,0,1-.119-.19v1.974H326.3v-4.377h.511v.63a1.244,1.244,0,0,1,1.142-.714h.071l.357.071a1.183,1.183,0,0,1,.63.488A1.617,1.617,0,0,1,329.333,117.38Zm-1.356,1.082a.856.856,0,0,0,.583-.393,1.32,1.32,0,0,0,.214-.737,1.154,1.154,0,0,0-.226-.726.785.785,0,0,0-.666-.3.987.987,0,0,0-.761.321,1.13,1.13,0,0,0-.3.785,1.07,1.07,0,0,0,.285.749.928.928,0,0,0,.714.309h.167Z" transform="translate(-293.318 -113.86)"/><path class="a" d="M380.351,118.933h-.535V116.78a.273.273,0,0,0-.036-.131l-.059-.107a.654.654,0,0,0-.214-.143.6.6,0,0,0-.226-.048.666.666,0,0,0-.464.19.892.892,0,0,0-.274.476v1.915h-.523v-2a.7.7,0,0,0-.2-.428.571.571,0,0,0-.4-.155.856.856,0,0,0-.25.036.785.785,0,0,0-.285.214.976.976,0,0,0-.19.321v2H376.2v-2.95h.488v.511a1.249,1.249,0,0,1,.345-.416.785.785,0,0,1,.488-.167h.1a.809.809,0,0,1,.511.178,1.011,1.011,0,0,1,.321.464,1,1,0,0,1,.392-.464,1.059,1.059,0,0,1,.583-.178.975.975,0,0,1,.428.1.916.916,0,0,1,.345.285.654.654,0,0,1,.143.321Z" transform="translate(-337.283 -113.949)"/><path class="a" d="M438.438,117.967a1.951,1.951,0,0,1-.654.559,1.689,1.689,0,0,1-.809.2,1.629,1.629,0,0,1-.773-.2,1.451,1.451,0,0,1-.523-.583,1.713,1.713,0,0,1-.178-.773,1.677,1.677,0,0,1,.333-1.011,1.089,1.089,0,0,1,.678-.5l.476-.059a1.618,1.618,0,0,1,.761.19,1.118,1.118,0,0,1,.523.559,2.2,2.2,0,0,1,.167.892h-2.4a1.094,1.094,0,0,0,.274.749.868.868,0,0,0,.69.309l.226-.024a.928.928,0,0,0,.44-.178,1.928,1.928,0,0,0,.357-.381Zm-.523-1.106a.987.987,0,0,0-.333-.583.94.94,0,0,0-.63-.226.785.785,0,0,0-.571.238,1.141,1.141,0,0,0-.321.571Z" transform="translate(-389.53 -113.685)"/><path class="a" d="M487.086,118.975h-.535v-2.07a.678.678,0,0,0-.25-.369.69.69,0,0,0-.428-.143.8.8,0,0,0-.274.048,1.153,1.153,0,0,0-.309.238.856.856,0,0,0-.19.333v1.951h-.5v-2.95h.5v.511a1.284,1.284,0,0,1,.393-.428,1.082,1.082,0,0,1,1.261.119,1.142,1.142,0,0,1,.333.714Z" transform="translate(-432.79 -113.991)"/><path class="a" d="M531.5,108.394h-.523v2.51h-.511v-2.51H530v-.4h.464V106.8h.511v1.189h.523Z" transform="translate(-472.79 -105.932)"/></g></g></g></svg>